<svg version="1.1" id="Layer_1" xmlns="http://www.w3.org/2000/svg" xmlns:xlink="http://www.w3.org/1999/xlink" x="0px" y="0px"
	 width="100%" viewBox="0 0 300 75" enable-background="new 0 0 300 75" xml:space="preserve">
<path fill="#FCFDFD" opacity="1.000000" stroke="none" 
	d="
M269.000000,76.000000 
	C266.958344,76.000000 264.916656,76.000000 262.420654,75.577751 
	C260.126770,74.820862 258.287445,74.194672 256.447693,74.193542 
	C177.151505,74.144745 97.855286,74.150871 18.559069,74.155487 
	C17.062059,74.155579 15.543566,74.087936 14.081100,74.329926 
	C13.640677,74.402817 13.356014,75.417015 13.000000,76.000000 
	C9.114045,76.000000 5.228090,76.000000 1.000000,76.000000 
	C1.000000,74.345886 1.000000,72.672417 1.319143,70.378563 
	C1.910232,69.112503 2.182179,68.466820 2.454127,67.821144 
	C1.969418,67.880768 1.484709,67.940384 1.000000,68.000000 
	C1.000000,67.555557 1.000000,67.111107 1.261465,66.721626 
	C2.181273,66.229492 2.839616,65.682396 3.754418,65.109009 
	C4.129401,64.406532 4.247923,63.730335 4.422838,62.703896 
	C5.845500,59.285229 7.211769,56.216805 8.861046,53.072754 
	C9.529154,51.678223 9.914253,50.359325 10.356680,48.728386 
	C10.778612,47.656685 11.143215,46.897030 11.761930,46.109718 
	C12.141251,45.407982 12.266458,44.733898 12.450867,43.710571 
	C13.866730,40.290447 15.223391,37.219570 16.864170,34.075333 
	C17.532797,32.681618 17.917307,31.361261 18.367374,29.685432 
	C20.478422,24.602259 22.523912,19.874556 24.854582,15.075226 
	C25.526779,13.682663 25.913797,12.361728 26.362253,10.694593 
	C27.784149,7.966702 29.144608,5.585011 30.848585,3.219477 
	C31.794737,2.490423 32.397369,1.745212 33.000000,1.000000 
	C121.354225,1.000000 209.708450,1.000000 298.517303,1.322114 
	C299.647949,2.096151 300.323975,2.548074 301.000000,2.999999 
	C301.000000,4.714358 301.000000,6.428717 300.691162,8.276606 
	C299.617462,9.415784 298.594482,10.314944 298.128693,11.443981 
	C294.473236,20.304258 291.364380,29.418835 287.238770,38.049564 
	C281.186584,50.710777 278.590637,65.048889 269.000000,76.000000 
M208.518448,22.118635 
	C215.351074,22.151356 222.183685,22.184074 229.353760,22.218410 
	C228.247818,28.767946 225.393646,31.240095 220.191895,31.085182 
	C216.695663,30.981060 213.186600,30.961840 209.694534,31.133476 
	C200.840683,31.568640 192.544174,33.912277 187.822861,41.986973 
	C183.245728,49.815075 179.732407,58.265194 175.384521,67.196762 
	C192.594849,67.196762 208.725555,67.224266 224.855469,67.125282 
	C225.778168,67.119629 227.138535,66.298615 227.536972,65.485527 
	C229.259613,61.970150 230.699951,58.316448 232.522522,54.060318 
	C220.600708,54.060318 209.523605,54.060318 198.312790,54.060318 
	C200.800797,46.794888 203.455185,44.768806 210.286743,44.666004 
	C212.786118,44.628387 215.286545,44.666180 217.786453,44.656734 
	C231.798233,44.603786 240.788422,38.381817 245.636353,25.387684 
	C249.406403,15.282631 245.524200,9.304764 234.773087,9.097652 
	C224.777023,8.905087 214.773865,8.995720 204.775497,9.109216 
	C203.490173,9.123806 201.561264,9.661725 201.050812,10.579995 
	C199.087143,14.112527 197.579117,17.898354 195.660721,22.118656 
	C200.215698,22.118656 203.872772,22.118656 208.518448,22.118635 
M64.517303,8.980840 
	C61.352589,8.994740 58.165771,8.791775 55.032177,9.111077 
	C53.385666,9.278852 51.108250,9.918608 50.377525,11.115553 
	C48.461876,14.253426 47.239254,17.814390 45.483250,21.788887 
	C51.695370,21.788887 56.852219,21.868734 62.005219,21.762321 
	C65.777710,21.684418 66.716675,23.331694 65.598282,26.742493 
	C63.422943,33.376644 61.337803,40.040359 59.211945,46.690750 
	C56.644615,54.722191 53.919067,56.043716 45.167854,53.301544 
	C50.615551,46.030342 56.014763,38.823849 62.038403,30.783913 
	C58.027111,30.783913 55.343853,31.050179 52.732864,30.728970 
	C47.145584,30.041613 43.446957,32.395939 40.060905,36.729481 
	C32.989292,45.779900 25.438356,54.455383 18.111889,63.307701 
	C17.337914,64.242859 16.747705,65.330109 15.725973,66.867996 
	C33.576061,66.867996 50.691856,66.932655 67.804283,66.723106 
	C68.950401,66.709084 70.707893,64.807991 71.106194,63.465649 
	C75.646034,48.165775 80.034508,32.820004 84.332504,17.449886 
	C85.876244,11.929283 83.830772,9.298956 77.999397,9.063893 
	C73.841286,8.896278 69.672310,8.998316 64.517303,8.980840 
M92.596535,27.045368 
	C88.129951,36.872124 83.540382,46.645504 79.243149,56.545765 
	C76.687347,62.434010 78.841682,66.535980 84.844971,66.814590 
	C92.640549,67.176361 100.494003,67.206093 108.275497,66.681198 
	C115.126663,66.219070 119.067665,61.486374 119.543068,54.291481 
	C114.218613,54.291481 108.910484,54.357903 103.604790,54.272758 
	C98.321823,54.187984 97.569519,53.125008 99.643852,48.310421 
	C102.666634,41.294415 105.989403,34.407372 108.995064,27.384367 
	C110.731529,23.326971 113.489876,21.528811 117.926826,21.814392 
	C121.736610,22.059603 125.584084,21.703815 129.396515,21.927305 
	C133.367111,22.160065 135.807983,20.911495 136.231308,16.637928 
	C136.659821,12.311910 134.576126,9.884163 130.535034,9.374853 
	C127.088524,8.940480 123.518562,9.446565 120.084061,8.962728 
	C105.963737,6.973512 96.502182,12.017621 92.596535,27.045368 
M252.166809,51.661156 
	C250.014618,56.634644 247.862411,61.608135 245.439651,67.206879 
	C249.555679,67.206879 252.888168,66.936142 256.156647,67.277870 
	C259.935669,67.672974 261.683014,66.126122 263.149475,62.720493 
	C270.109711,46.556511 277.365082,30.519686 284.493439,14.427850 
	C285.200714,12.831126 285.758820,11.168310 286.575256,9.044280 
	C282.492218,9.044280 279.159760,9.252713 275.865570,8.986757 
	C272.442719,8.710416 270.587830,9.778798 269.169952,13.147622 
	C263.824860,25.847473 258.096680,38.386105 252.166809,51.661156 
M161.672470,39.181271 
	C163.240372,35.407230 164.808273,31.633188 166.694641,27.092587 
	C163.067398,27.092587 160.258438,27.385210 157.535507,27.025829 
	C153.159698,26.448290 151.000977,28.328735 149.310562,32.247250 
	C145.297501,41.549805 140.828308,50.655487 136.550034,59.843803 
	C135.530930,62.032505 134.537659,64.233238 133.329147,66.872559 
	C139.288025,66.872559 144.409378,66.872559 149.629990,66.872559 
	C153.543930,57.824772 157.430298,48.840733 161.672470,39.181271 
M146.634644,21.304798 
	C156.132446,21.276995 165.630234,21.236807 175.128052,21.224895 
	C184.489594,21.213154 186.172028,19.686699 187.677765,9.042978 
	C175.973465,9.042978 164.370224,9.015200 152.767197,9.052003 
	C143.914597,9.080082 140.872696,11.897109 139.697159,21.305025 
	C141.719925,21.305025 143.700882,21.305025 146.634644,21.304798 
z"/>
<path fill="#F95638" opacity="1.000000" stroke="none" 
	d="
M13.468657,76.000000 
	C13.356014,75.417015 13.640677,74.402817 14.081100,74.329926 
	C15.543566,74.087936 17.062059,74.155579 18.559069,74.155487 
	C97.855286,74.150871 177.151505,74.144745 256.447693,74.193542 
	C258.287445,74.194672 260.126770,74.820862 261.983154,75.577751 
	C179.312439,76.000000 96.624878,76.000000 13.468657,76.000000 
z"/>
<path fill="#BABABB" opacity="1.000000" stroke="none" 
	d="
M30.848583,3.219477 
	C30.721069,2.668846 30.937073,2.134373 31.076538,1.299950 
	C31.444445,1.000000 31.888891,1.000000 32.666668,1.000000 
	C32.397369,1.745212 31.794737,2.490423 30.848583,3.219477 
z"/>
<path fill="#BABABB" opacity="1.000000" stroke="none" 
	d="
M301.000000,2.500000 
	C300.323975,2.548074 299.647949,2.096151 298.985962,1.322115 
	C299.666656,1.333336 300.333344,1.666669 301.000000,2.500000 
z"/>
<path fill="#BABABB" opacity="1.000000" stroke="none" 
	d="
M1.000000,68.333328 
	C1.484709,67.940384 1.969418,67.880768 2.454127,67.821144 
	C2.182179,68.466820 1.910232,69.112503 1.319143,69.879089 
	C1.000000,69.555557 1.000000,69.111107 1.000000,68.333328 
z"/>
<path fill="#F95A3B" opacity="1.000000" stroke="none" 
	d="
M208.024139,22.118645 
	C203.872772,22.118656 200.215698,22.118656 195.660721,22.118656 
	C197.579117,17.898354 199.087143,14.112527 201.050812,10.579995 
	C201.561264,9.661725 203.490173,9.123806 204.775497,9.109216 
	C214.773865,8.995720 224.777023,8.905087 234.773087,9.097652 
	C245.524200,9.304764 249.406403,15.282631 245.636353,25.387684 
	C240.788422,38.381817 231.798233,44.603786 217.786453,44.656734 
	C215.286545,44.666180 212.786118,44.628387 210.286743,44.666004 
	C203.455185,44.768806 200.800797,46.794888 198.312790,54.060318 
	C209.523605,54.060318 220.600708,54.060318 232.522522,54.060318 
	C230.699951,58.316448 229.259613,61.970150 227.536972,65.485527 
	C227.138535,66.298615 225.778168,67.119629 224.855469,67.125282 
	C208.725555,67.224266 192.594849,67.196762 175.384521,67.196762 
	C179.732407,58.265194 183.245728,49.815075 187.822861,41.986973 
	C192.544174,33.912277 200.840683,31.568640 209.694534,31.133476 
	C213.186600,30.961840 216.695663,30.981060 220.191895,31.085182 
	C225.393646,31.240095 228.247818,28.767946 229.353760,22.218410 
	C222.183685,22.184074 215.351074,22.151356 208.024139,22.118645 
z"/>
<path fill="#05A5E9" opacity="1.000000" stroke="none" 
	d="
M65.012741,8.980431 
	C69.672310,8.998316 73.841286,8.896278 77.999397,9.063893 
	C83.830772,9.298956 85.876244,11.929283 84.332504,17.449886 
	C80.034508,32.820004 75.646034,48.165775 71.106194,63.465649 
	C70.707893,64.807991 68.950401,66.709084 67.804283,66.723106 
	C50.691856,66.932655 33.576061,66.867996 15.725973,66.867996 
	C16.747705,65.330109 17.337914,64.242859 18.111889,63.307701 
	C25.438356,54.455383 32.989292,45.779900 40.060905,36.729481 
	C43.446957,32.395939 47.145584,30.041613 52.732864,30.728970 
	C55.343853,31.050179 58.027111,30.783913 62.038403,30.783913 
	C56.014763,38.823849 50.615551,46.030342 45.167854,53.301544 
	C53.919067,56.043716 56.644615,54.722191 59.211945,46.690750 
	C61.337803,40.040359 63.422943,33.376644 65.598282,26.742493 
	C66.716675,23.331694 65.777710,21.684418 62.005219,21.762321 
	C56.852219,21.868734 51.695370,21.788887 45.483250,21.788887 
	C47.239254,17.814390 48.461876,14.253426 50.377525,11.115553 
	C51.108250,9.918608 53.385666,9.278852 55.032177,9.111077 
	C58.165771,8.791775 61.352589,8.994740 65.012741,8.980431 
z"/>
<path fill="#06A5E9" opacity="1.000000" stroke="none" 
	d="
M92.752777,26.700901 
	C96.502182,12.017621 105.963737,6.973512 120.084061,8.962728 
	C123.518562,9.446565 127.088524,8.940480 130.535034,9.374853 
	C134.576126,9.884163 136.659821,12.311910 136.231308,16.637928 
	C135.807983,20.911495 133.367111,22.160065 129.396515,21.927305 
	C125.584084,21.703815 121.736610,22.059603 117.926826,21.814392 
	C113.489876,21.528811 110.731529,23.326971 108.995064,27.384367 
	C105.989403,34.407372 102.666634,41.294415 99.643852,48.310421 
	C97.569519,53.125008 98.321823,54.187984 103.604790,54.272758 
	C108.910484,54.357903 114.218613,54.291481 119.543068,54.291481 
	C119.067665,61.486374 115.126663,66.219070 108.275497,66.681198 
	C100.494003,67.206093 92.640549,67.176361 84.844971,66.814590 
	C78.841682,66.535980 76.687347,62.434010 79.243149,56.545765 
	C83.540382,46.645504 88.129951,36.872124 92.752777,26.700901 
z"/>
<path fill="#F95A3B" opacity="1.000000" stroke="none" 
	d="
M252.339386,51.323128 
	C258.096680,38.386105 263.824860,25.847473 269.169952,13.147622 
	C270.587830,9.778798 272.442719,8.710416 275.865570,8.986757 
	C279.159760,9.252713 282.492218,9.044280 286.575256,9.044280 
	C285.758820,11.168310 285.200714,12.831126 284.493439,14.427850 
	C277.365082,30.519686 270.109711,46.556511 263.149475,62.720493 
	C261.683014,66.126122 259.935669,67.672974 256.156647,67.277870 
	C252.888168,66.936142 249.555679,67.206879 245.439651,67.206879 
	C247.862411,61.608135 250.014618,56.634644 252.339386,51.323128 
z"/>
<path fill="#06A5E9" opacity="1.000000" stroke="none" 
	d="
M161.494568,39.518982 
	C157.430298,48.840733 153.543930,57.824772 149.629990,66.872559 
	C144.409378,66.872559 139.288025,66.872559 133.329147,66.872559 
	C134.537659,64.233238 135.530930,62.032505 136.550034,59.843803 
	C140.828308,50.655487 145.297501,41.549805 149.310562,32.247250 
	C151.000977,28.328735 153.159698,26.448290 157.535507,27.025829 
	C160.258438,27.385210 163.067398,27.092587 166.694641,27.092587 
	C164.808273,31.633188 163.240372,35.407230 161.494568,39.518982 
z"/>
<path fill="#07A5E9" opacity="1.000000" stroke="none" 
	d="
M146.158234,21.304913 
	C143.700882,21.305025 141.719925,21.305025 139.697159,21.305025 
	C140.872696,11.897109 143.914597,9.080082 152.767197,9.052003 
	C164.370224,9.015200 175.973465,9.042978 187.677765,9.042978 
	C186.172028,19.686699 184.489594,21.213154 175.128052,21.224895 
	C165.630234,21.236807 156.132446,21.276995 146.158234,21.304913 
z"/>
<path fill="#BABABB" opacity="1.000000" stroke="none" 
	d="
M24.854582,15.075226 
	C24.933367,13.871330 25.297331,12.595807 25.981056,11.180538 
	C25.913797,12.361728 25.526779,13.682663 24.854582,15.075226 
z"/>
<path fill="#BABABB" opacity="1.000000" stroke="none" 
	d="
M16.864170,34.075333 
	C16.940907,32.872467 17.301764,31.596249 17.982218,30.180466 
	C17.917307,31.361261 17.532797,32.681618 16.864170,34.075333 
z"/>
<path fill="#BABABB" opacity="1.000000" stroke="none" 
	d="
M8.861046,53.072754 
	C8.939562,51.872921 9.301086,50.597462 9.980982,49.181213 
	C9.914253,50.359325 9.529154,51.678223 8.861046,53.072754 
z"/>
<path fill="#BABABB" opacity="1.000000" stroke="none" 
	d="
M11.761930,46.109718 
	C11.589512,45.511158 11.671206,44.884949 12.072282,44.159279 
	C12.266458,44.733898 12.141251,45.407982 11.761930,46.109718 
z"/>
<path fill="#BABABB" opacity="1.000000" stroke="none" 
	d="
M3.754418,65.109009 
	C3.577178,64.512680 3.656398,63.890064 4.051032,63.160797 
	C4.247923,63.730335 4.129401,64.406532 3.754418,65.109009 
z"/>
</svg>