<svg version="1.1" id="Layer_1" xmlns="http://www.w3.org/2000/svg" xmlns:xlink="http://www.w3.org/1999/xlink" x="0px" y="0px"
	 width="100%" viewBox="0 0 5000 5000" enable-background="new 0 0 5000 5000" xml:space="preserve">
<path fill="#FFFFFF" opacity="1.000000" stroke="none" 
	d="
M4.000000,1908.000000 
	C4.000000,1272.000000 4.000000,638.000000 4.000000,4.000000 
	C1670.666626,4.000000 3337.333252,4.000000 5004.000000,4.000000 
	C5004.000000,1670.666626 5004.000000,3337.333252 5004.000000,5004.000000 
	C3337.333252,5004.000000 1670.666626,5004.000000 4.000001,5004.000000 
	C4.000000,3972.666748 4.000000,2941.333252 4.000000,1908.000000 
M4046.082520,4730.809570 
	C4062.735107,4730.826660 4079.387451,4730.857422 4096.040039,4730.858398 
	C4192.625488,4730.862793 4289.210449,4730.922852 4385.795410,4730.729980 
	C4392.806641,4730.716309 4400.439453,4733.186523 4407.705078,4727.420898 
	C4407.705078,4712.541016 4407.705078,4697.249023 4407.705078,4681.957031 
	C4407.705078,4666.636719 4407.705078,4651.316406 4407.705078,4635.996094 
	C4407.705078,4620.675781 4407.705078,4605.354980 4407.705078,4590.034668 
	C4407.705078,4574.048340 4407.705078,4558.061523 4407.705078,4542.075195 
	C4407.705078,4526.754883 4407.705078,4511.434082 4407.705078,4496.113770 
	C4407.705078,4480.793457 4407.653809,4465.472656 4407.719727,4450.152344 
	C4407.784668,4434.989258 4407.408203,4419.805176 4408.035156,4403.462891 
	C4415.821289,4403.236816 4422.305176,4402.887207 4428.789062,4402.884766 
	C4518.046875,4402.848633 4607.305176,4402.912598 4696.562988,4402.759766 
	C4703.603027,4402.748047 4711.112305,4404.684570 4718.840820,4399.791016 
	C4718.840820,4394.030762 4718.840820,4388.111816 4718.840820,4382.192871 
	C4718.840820,4278.946289 4718.852051,4175.700195 4718.812500,4072.453857 
	C4718.810059,4066.473633 4718.394043,4060.493164 4718.939453,4052.765381 
	C4718.671387,4050.998535 4718.402832,4049.231689 4718.684570,4043.313965 
	C4718.720703,3969.334961 4718.779297,3895.355713 4718.788086,3821.376709 
	C4718.804688,3680.081787 4718.830566,3538.787109 4718.679199,3397.492188 
	C4718.671875,3390.395996 4720.803711,3382.876221 4715.800781,3374.795166 
	C4695.824707,3374.795166 4675.225586,3374.794922 4654.626465,3374.794922 
	C4633.965332,3374.794922 4613.304688,3374.794922 4592.643555,3374.794922 
	C4572.648926,3374.794922 4552.654297,3374.794922 4532.659668,3374.794922 
	C4511.998535,3374.794922 4491.334473,3375.029785 4470.677734,3374.728760 
	C4450.205566,3374.430420 4429.652832,3376.093506 4407.885254,3373.463135 
	C4407.807129,3364.801758 4407.674316,3356.926758 4407.673828,3349.051758 
	C4407.664062,2929.166260 4407.665039,2509.280762 4407.664551,2089.395264 
	C4407.664551,2084.063477 4407.853027,2078.722168 4407.595215,2073.402832 
	C4407.415039,2069.679199 4406.622559,2065.985107 4405.950684,2061.187500 
	C4380.171875,2061.187500 4355.602051,2061.187500 4331.032227,2061.187500 
	C4305.705566,2061.187500 4280.379395,2061.187500 4255.052734,2061.187500 
	C4230.392578,2061.187500 4205.730957,2061.384766 4181.073242,2061.132568 
	C4155.994629,2060.875977 4130.855957,2062.265869 4106.953125,2060.305664 
	C4105.469727,2058.326172 4104.940430,2057.843262 4104.707031,2057.245117 
	C4104.476562,2056.653320 4104.536621,2055.945801 4104.484863,2055.287598 
	C4104.433105,2054.623291 4104.386719,2053.958008 4104.364258,2053.291992 
	C4104.341309,2052.626221 4104.350098,2051.959473 4104.346191,2051.292969 
	C4104.342285,2050.626465 4104.335938,2049.959961 4104.335938,2049.293457 
	C4104.334473,1810.691895 4104.333984,1572.090210 4104.332520,1333.488647 
	C4104.332520,1332.155640 4104.329590,1330.822754 4104.326172,1329.489746 
	C4104.324219,1328.823242 4104.326660,1328.156738 4104.313477,1327.490356 
	C4104.300781,1326.824463 4104.278809,1326.158325 4104.246094,1325.493042 
	C4104.213379,1324.827515 4104.229492,1324.148926 4104.098145,1323.501587 
	C4103.973633,1322.885620 4103.763672,1322.258667 4103.452148,1321.716553 
	C4103.124023,1321.146606 4102.630371,1320.671631 4101.101074,1318.795166 
	C4080.361328,1318.795166 4058.490723,1318.795166 4036.620117,1318.795166 
	C4015.292480,1318.795166 3993.965088,1318.795166 3972.637451,1318.795166 
	C3950.643555,1318.795166 3928.649414,1318.795166 3906.655518,1318.795166 
	C3884.661377,1318.795166 3862.667480,1318.795166 3840.673340,1318.795166 
	C3819.345947,1318.795166 3798.018311,1318.795166 3776.690918,1318.795166 
	C3754.697021,1318.795166 3732.702881,1318.795166 3710.708984,1318.795166 
	C3689.381348,1318.795166 3668.053955,1318.795166 3646.726318,1318.795166 
	C3624.732422,1318.795166 3602.738281,1318.795166 3580.744385,1318.795166 
	C3558.750488,1318.795166 3536.756348,1318.795166 3514.762451,1318.795166 
	C3493.434814,1318.795166 3472.104492,1319.011841 3450.780518,1318.734741 
	C3428.969238,1318.451294 3407.090576,1319.966919 3383.889160,1317.569824 
	C3383.808594,1309.537842 3383.673828,1302.346558 3383.673340,1295.155151 
	C3383.662598,1038.558472 3383.664307,781.961792 3383.664307,525.365112 
	C3383.664307,452.718262 3383.685791,380.071350 3383.617432,307.424561 
	C3383.612793,302.289307 3382.946289,297.154633 3382.501953,290.795166 
	C3374.798828,290.795166 3368.221191,290.795166 3361.643799,290.795166 
	C3179.693359,290.795410 2997.743164,290.785156 2815.792725,290.838013 
	C2809.163086,290.839935 2802.533691,291.461395 2792.285645,290.800781 
	C2714.149658,290.791840 2636.013428,290.765778 2557.877441,290.817474 
	C2553.287109,290.820496 2548.697510,291.450409 2540.434082,290.908997 
	C2442.869141,290.872131 2345.303955,290.823669 2247.739014,290.840393 
	C2243.791748,290.841095 2239.844482,291.457153 2232.279785,290.793427 
	C2106.815186,290.790710 1981.350708,290.775604 1855.886108,290.828644 
	C1850.621094,290.830872 1845.356201,291.468079 1836.422852,290.915131 
	C1731.562378,290.876251 1626.701904,290.823151 1521.841431,290.845795 
	C1517.237915,290.846802 1512.634521,291.540649 1504.387329,290.924652 
	C1432.886963,290.867645 1361.386597,290.796661 1289.886230,290.798706 
	C1286.621704,290.798798 1283.357056,291.456970 1276.423706,290.915222 
	C1275.092773,290.880768 1273.761719,290.816101 1272.430786,290.816040 
	C958.878601,290.806152 645.326416,290.795654 331.774231,290.839508 
	C326.489136,290.840240 321.204132,291.502289 313.477325,291.563812 
	C313.130829,293.014771 312.784363,294.465759 311.735992,299.618622 
	C311.724731,300.284637 311.703674,300.950653 311.703644,301.616669 
	C311.690216,889.114075 311.676178,1476.611450 311.698486,2064.108887 
	C311.698700,2069.415283 312.185791,2074.721436 311.616302,2083.645020 
	C311.891602,2099.754150 312.166901,2115.863525 311.737976,2135.667236 
	C311.715118,2137.665527 311.672211,2139.663574 311.672211,2141.661865 
	C311.668213,2792.491455 311.665161,3443.321289 311.698029,4094.150879 
	C311.698334,4100.124023 312.180603,4106.097168 311.962891,4114.488770 
	C313.283020,4115.041016 314.603149,4115.592773 319.578552,4117.090820 
	C327.577606,4117.128906 335.576630,4117.199707 343.575684,4117.200195 
	C904.888733,4117.205078 1466.201782,4117.205078 2027.514893,4117.205078 
	C2032.848022,4117.205078 2038.187744,4117.045898 2043.512207,4117.261230 
	C2047.349731,4117.416016 2051.166992,4118.069824 2056.335693,4118.652344 
	C2056.335693,4142.695312 2056.335449,4165.927734 2056.335449,4189.160156 
	C2056.335449,4212.492676 2056.335449,4235.824707 2056.335449,4259.157227 
	C2056.335449,4283.156250 2056.258545,4307.156250 2056.357666,4331.154785 
	C2056.453125,4354.319336 2055.895264,4377.504883 2056.778076,4401.010742 
	C2065.709961,4403.899414 2073.718262,4402.756836 2081.542480,4402.758301 
	C2506.193848,4402.819824 2930.845215,4402.812500 3355.496582,4402.812012 
	C3360.829834,4402.812012 3366.169678,4402.652832 3371.493652,4402.874512 
	C3375.227783,4403.029785 3378.939941,4403.706055 3383.666504,4404.270020 
	C3383.666504,4426.826172 3383.666504,4448.061523 3383.666504,4469.296875 
	C3383.666504,4491.295898 3383.666504,4513.295410 3383.666504,4535.294434 
	C3383.666504,4556.626953 3383.666504,4577.959473 3383.666504,4599.291992 
	C3383.666504,4621.291016 3383.467773,4643.292969 3383.723633,4665.289062 
	C3383.969971,4686.458984 3382.562744,4707.683594 3384.731934,4730.223633 
	C3392.555176,4730.431152 3399.736328,4730.787109 3406.917480,4730.788086 
	C3608.910156,4730.818359 3810.902832,4730.819824 4012.895508,4730.783203 
	C4020.214844,4730.781738 4027.534424,4730.347656 4036.416016,4731.057129 
	C4038.265381,4730.851074 4040.114990,4730.645020 4046.082520,4730.809570 
z"/>
<path fill="#000000" opacity="1.000000" stroke="none" 
	d="
M4034.853760,4730.114746 
	C4027.534424,4730.347656 4020.214844,4730.781738 4012.895508,4730.783203 
	C3810.902832,4730.819824 3608.910156,4730.818359 3406.917480,4730.788086 
	C3399.736328,4730.787109 3392.555176,4730.431152 3384.731934,4730.223633 
	C3382.562744,4707.683594 3383.969971,4686.458984 3383.723633,4665.289062 
	C3383.467773,4643.292969 3383.666504,4621.291016 3383.666504,4599.291992 
	C3383.666504,4577.959473 3383.666504,4556.626953 3383.666504,4535.294434 
	C3383.666504,4513.295410 3383.666504,4491.295898 3383.666504,4469.296875 
	C3383.666504,4448.061523 3383.666504,4426.826172 3383.666504,4404.270020 
	C3378.939941,4403.706055 3375.227783,4403.029785 3371.493652,4402.874512 
	C3366.169678,4402.652832 3360.829834,4402.812012 3355.496582,4402.812012 
	C2930.845215,4402.812500 2506.193848,4402.819824 2081.542480,4402.758301 
	C2073.718262,4402.756836 2065.709961,4403.899414 2056.778076,4401.010742 
	C2055.895264,4377.504883 2056.453125,4354.319336 2056.357666,4331.154785 
	C2056.258545,4307.156250 2056.335449,4283.156250 2056.335449,4259.157227 
	C2056.335449,4235.824707 2056.335449,4212.492676 2056.335449,4189.160156 
	C2056.335449,4165.927734 2056.335693,4142.695312 2056.335693,4118.652344 
	C2051.166992,4118.069824 2047.349731,4117.416016 2043.512207,4117.261230 
	C2038.187744,4117.045898 2032.848022,4117.205078 2027.514893,4117.205078 
	C1466.201782,4117.205078 904.888733,4117.205078 343.575684,4117.200195 
	C335.576630,4117.199707 327.577606,4117.128906 317.436340,4115.739258 
	C314.611938,4113.281738 313.659851,4112.509766 312.437866,4112.070312 
	C312.180603,4106.097168 311.698334,4100.124023 311.698029,4094.150879 
	C311.665161,3443.321289 311.668213,2792.491455 311.672211,2141.661865 
	C311.672211,2139.663574 311.715118,2137.665527 313.434326,2134.073486 
	C316.992676,2134.245117 319.448395,2135.683594 320.627472,2137.824951 
	C337.628021,2168.701172 354.626007,2199.581543 371.275787,2230.647461 
	C385.735474,2257.627441 399.899139,2284.768799 413.892059,2311.993896 
	C418.970459,2321.874756 426.365387,2328.715088 435.938202,2334.264160 
	C446.466400,2340.366943 457.531464,2340.510742 468.852966,2339.947021 
	C489.523376,2338.918213 509.106781,2322.109375 511.487854,2301.723633 
	C513.252197,2286.618164 513.129028,2271.608154 504.847260,2257.184570 
	C490.608154,2232.386230 477.915405,2206.700195 464.577881,2181.384521 
	C464.267578,2180.795166 464.039642,2180.162109 463.721344,2179.577637 
	C450.397461,2155.105713 437.067688,2130.636963 423.747345,2106.183838 
	C430.741028,2088.916992 440.132294,2073.650879 448.701965,2057.897949 
	C467.467194,2023.404053 484.769684,1988.114014 503.558197,1953.633179 
	C510.950806,1940.066284 512.721680,1926.218628 512.128967,1911.349976 
	C511.791382,1902.878906 508.797668,1895.782349 503.406433,1889.602783 
	C497.239014,1882.533813 490.216125,1876.669312 481.526367,1872.553345 
	C468.574554,1866.418579 456.015961,1866.149780 443.139252,1872.327515 
	C428.875031,1879.171265 417.829926,1889.438354 410.436615,1903.369141 
	C395.461273,1931.585571 380.727417,1959.930420 365.888428,1988.219360 
	C351.358948,2015.918091 336.837280,2043.621094 322.262695,2071.296143 
	C321.031769,2073.633545 319.739929,2076.097168 317.886475,2077.893799 
	C316.595764,2079.144531 314.295105,2079.353516 312.445557,2080.027832 
	C312.185791,2074.721436 311.698700,2069.415283 311.698486,2064.108887 
	C311.676178,1476.611450 311.690216,889.114075 311.703644,301.616669 
	C311.703674,300.950653 311.724731,300.284637 312.902466,297.317444 
	C315.083740,294.195831 315.700470,293.142334 315.919067,291.855743 
	C321.204132,291.502289 326.489136,290.840240 331.774231,290.839508 
	C645.326416,290.795654 958.878601,290.806152 1272.430786,290.816040 
	C1273.761719,290.816101 1275.092773,290.880768 1277.511719,292.478180 
	C1263.739868,302.844696 1254.373535,316.488770 1246.539551,331.248322 
	C1230.353882,361.742065 1214.579346,392.453766 1198.469238,422.988007 
	C1192.902100,433.539886 1186.622681,443.716248 1181.064087,454.272461 
	C1174.562378,466.619476 1168.306641,479.105408 1162.307129,491.703857 
	C1158.861572,498.939026 1159.981323,503.523163 1166.337158,506.951111 
	C1190.287964,519.868774 1214.319458,532.645447 1238.528076,545.071411 
	C1247.690552,549.774353 1251.290039,548.416626 1256.156128,539.270996 
	C1263.023193,526.364624 1269.148560,513.062195 1276.071289,500.187225 
	C1291.462891,471.561127 1307.492554,443.273865 1322.603516,414.502563 
	C1332.950439,394.801575 1331.649170,395.938934 1352.861816,395.941101 
	C1397.415771,395.945618 1441.970093,396.014618 1486.523560,395.861176 
	C1492.966431,395.838989 1499.834351,397.599396 1505.459839,393.543335 
	C1506.268433,391.920807 1507.338379,390.768921 1507.348877,389.607452 
	C1507.641724,357.042816 1507.827637,324.477203 1508.031006,291.911774 
	C1512.634521,291.540649 1517.237915,290.846802 1521.841431,290.845795 
	C1626.701904,290.823151 1731.562378,290.876251 1837.507568,292.481750 
	C1833.497925,298.265869 1827.804932,301.941315 1823.412598,306.794128 
	C1803.656616,328.621643 1803.557617,354.825928 1822.774414,376.640808 
	C1834.241943,389.658661 1848.620239,396.170471 1866.649902,396.117157 
	C1979.658813,395.783203 2092.669189,395.967712 2205.678955,395.977661 
	C2208.337891,395.977875 2211.021240,396.170135 2213.651855,395.886841 
	C2230.862793,394.033173 2245.680420,387.432098 2256.367432,373.331665 
	C2263.353027,364.115204 2268.364990,353.185883 2267.204834,342.025879 
	C2265.556885,326.177277 2260.600830,310.814362 2246.510742,300.561951 
	C2242.805908,297.866241 2239.426270,294.723694 2235.897217,291.786499 
	C2239.844482,291.457153 2243.791748,290.841095 2247.739014,290.840393 
	C2345.303955,290.823669 2442.869141,290.872131 2541.670410,292.583130 
	C2539.763672,296.646576 2536.726074,299.191711 2533.460938,301.400482 
	C2509.756104,317.437042 2507.322510,356.444000 2526.876465,377.046265 
	C2539.150391,389.978271 2554.085449,395.799957 2571.395264,395.909027 
	C2607.373047,396.135712 2643.353271,395.980377 2679.332520,395.983521 
	C2696.655762,395.985046 2713.991455,396.381439 2731.297363,395.836548 
	C2740.700684,395.540436 2745.840332,399.562531 2749.944580,407.623749 
	C2762.314697,431.920013 2775.259521,455.924103 2788.020508,480.020813 
	C2799.846924,502.352783 2811.515137,524.773071 2823.705322,546.905212 
	C2827.506836,553.806763 2831.487793,561.796265 2837.636475,565.985840 
	C2853.256348,576.628723 2870.538330,584.094116 2889.916992,575.664307 
	C2900.850830,570.908020 2911.180176,565.426086 2917.219238,553.805298 
	C2926.518555,535.910767 2927.236084,518.351501 2918.186768,500.367371 
	C2913.397461,490.848999 2908.826172,481.213135 2903.780029,471.832886 
	C2887.090820,440.809570 2870.219727,409.884094 2853.440430,378.909088 
	C2844.893311,363.130096 2835.428467,347.755585 2828.142090,331.411865 
	C2820.837646,315.027649 2809.857178,302.387817 2795.904053,291.794128 
	C2802.533691,291.461395 2809.163086,290.839935 2815.792725,290.838013 
	C2997.743164,290.785156 3179.693359,290.795410 3361.643799,290.795166 
	C3368.221191,290.795166 3374.798828,290.795166 3382.501953,290.795166 
	C3382.946289,297.154633 3383.612793,302.289307 3383.617432,307.424561 
	C3383.685791,380.071350 3383.664307,452.718262 3383.664307,525.365112 
	C3383.664307,781.961792 3383.662598,1038.558472 3383.673340,1295.155151 
	C3383.673828,1302.346558 3383.808594,1309.537842 3383.889160,1317.569824 
	C3407.090576,1319.966919 3428.969238,1318.451294 3450.780518,1318.734741 
	C3472.104492,1319.011841 3493.434814,1318.795166 3514.762451,1318.795166 
	C3536.756348,1318.795166 3558.750488,1318.795166 3580.744385,1318.795166 
	C3602.738281,1318.795166 3624.732422,1318.795166 3646.726318,1318.795166 
	C3668.053955,1318.795166 3689.381348,1318.795166 3710.708984,1318.795166 
	C3732.702881,1318.795166 3754.697021,1318.795166 3776.690918,1318.795166 
	C3798.018311,1318.795166 3819.345947,1318.795166 3840.673340,1318.795166 
	C3862.667480,1318.795166 3884.661377,1318.795166 3906.655518,1318.795166 
	C3928.649414,1318.795166 3950.643555,1318.795166 3972.637451,1318.795166 
	C3993.965088,1318.795166 4015.292480,1318.795166 4036.620117,1318.795166 
	C4058.490723,1318.795166 4080.361328,1318.795166 4101.101074,1318.795166 
	C4102.630371,1320.671631 4103.124023,1321.146606 4103.452148,1321.716553 
	C4103.763672,1322.258667 4103.973633,1322.885620 4104.098145,1323.501587 
	C4104.229492,1324.148926 4104.213379,1324.827515 4104.246094,1325.493042 
	C4104.278809,1326.158325 4104.300781,1326.824463 4104.313477,1327.490356 
	C4104.326660,1328.156738 4104.324219,1328.823242 4104.326172,1329.489746 
	C4104.329590,1330.822754 4104.332520,1332.155640 4104.332520,1333.488647 
	C4104.333984,1572.090210 4104.334473,1810.691895 4104.335938,2049.293457 
	C4104.335938,2049.959961 4104.342285,2050.626465 4104.346191,2051.292969 
	C4104.350098,2051.959473 4104.341309,2052.626221 4104.364258,2053.291992 
	C4104.386719,2053.958008 4104.433105,2054.623291 4104.484863,2055.287598 
	C4104.536621,2055.945801 4104.476562,2056.653320 4104.707031,2057.245117 
	C4104.940430,2057.843262 4105.469727,2058.326172 4106.953125,2060.305664 
	C4130.855957,2062.265869 4155.994629,2060.875977 4181.073242,2061.132568 
	C4205.730957,2061.384766 4230.392578,2061.187500 4255.052734,2061.187500 
	C4280.379395,2061.187500 4305.705566,2061.187500 4331.032227,2061.187500 
	C4355.602051,2061.187500 4380.171875,2061.187500 4405.950684,2061.187500 
	C4406.622559,2065.985107 4407.415039,2069.679199 4407.595215,2073.402832 
	C4407.853027,2078.722168 4407.664551,2084.063477 4407.664551,2089.395264 
	C4407.665039,2509.280762 4407.664062,2929.166260 4407.673828,3349.051758 
	C4407.674316,3356.926758 4407.807129,3364.801758 4407.885254,3373.463135 
	C4429.652832,3376.093506 4450.205566,3374.430420 4470.677734,3374.728760 
	C4491.334473,3375.029785 4511.998535,3374.794922 4532.659668,3374.794922 
	C4552.654297,3374.794922 4572.648926,3374.794922 4592.643555,3374.794922 
	C4613.304688,3374.794922 4633.965332,3374.794922 4654.626465,3374.794922 
	C4675.225586,3374.794922 4695.824707,3374.795166 4715.800781,3374.795166 
	C4720.803711,3382.876221 4718.671875,3390.395996 4718.679199,3397.492188 
	C4718.830566,3538.787109 4718.804688,3680.081787 4718.788086,3821.376709 
	C4718.779297,3895.355713 4718.720703,3969.334961 4717.427734,4044.323975 
	C4713.058105,4042.956055 4709.648926,4040.880127 4706.877930,4038.155029 
	C4672.667480,4004.512939 4638.389648,3970.936523 4604.438477,3937.033447 
	C4492.651855,3825.403320 4381.048828,3713.589600 4269.270996,3601.950684 
	C4104.202148,3437.087158 3939.041748,3272.315918 3773.936523,3107.489014 
	C3768.361084,3101.922852 3762.967285,3096.175049 3757.087402,3090.097168 
	C3760.926758,3085.632568 3763.712402,3081.935059 3766.952881,3078.691650 
	C3866.833740,2978.723633 3966.717285,2878.758301 4066.698730,2778.891113 
	C4106.781250,2738.854492 4147.116211,2699.070557 4187.257812,2659.093262 
	C4190.274414,2656.088379 4192.662109,2652.451416 4196.361328,2647.837402 
	C4190.819336,2646.045898 4187.173340,2644.686523 4183.431641,2643.683838 
	C4043.248291,2606.110352 3903.045654,2568.608154 3762.867188,2531.016357 
	C3474.799561,2453.764893 3186.740723,2376.481201 2898.684814,2299.185303 
	C2701.295410,2246.217773 2503.919189,2193.200439 2306.533447,2140.218994 
	C2229.373535,2119.508057 2152.207520,2098.819580 2075.028320,2078.180908 
	C2070.152832,2076.877197 2065.134277,2073.663574 2059.285156,2078.819092 
	C2249.124023,2784.940186 2439.064697,3491.447021 2629.061035,4197.938965 
	C2629.909912,4201.095215 2631.552734,4204.038086 2632.959717,4207.403320 
	C2635.174316,4206.298340 2637.228027,4205.777832 2638.592041,4204.513184 
	C2647.872559,4195.907227 2657.204346,4187.341309 2666.159668,4178.401855 
	C2731.263672,4113.415039 2796.281982,4048.342529 2861.327393,3983.297119 
	C2928.258545,3916.366699 2995.175781,3849.422363 3062.155518,3782.540771 
	C3066.214600,3778.487549 3070.769287,3774.931152 3075.564453,3770.730957 
	C3081.358887,3776.251953 3086.227539,3780.712402 3090.900635,3785.369385 
	C3186.274414,3880.408936 3281.724854,3975.371582 3376.960938,4070.548828 
	C3591.488525,4284.943848 3805.913574,4499.440918 4020.335205,4713.941895 
	C4025.449219,4719.058105 4030.026123,4724.711914 4034.853760,4730.114746 
M1800.248047,2100.551514 
	C1800.016357,2095.226562 1799.708496,2089.903564 1799.564209,2084.576416 
	C1797.203613,1997.428711 1829.547485,1925.540161 1897.610596,1871.501221 
	C1967.012817,1816.398926 2046.016479,1802.302734 2131.386719,1825.040771 
	C2262.615967,1859.993408 2393.708252,1895.460083 2524.880859,1930.626587 
	C2578.256348,1944.936157 2631.689941,1959.030029 2685.096924,1973.222290 
	C2688.184082,1974.042603 2691.392578,1975.909180 2694.380127,1971.606689 
	C2689.567627,1927.636108 2679.621826,1884.308350 2665.042480,1842.039429 
	C2630.280518,1741.257568 2574.386963,1654.068115 2496.493164,1581.163574 
	C2388.021973,1479.640259 2259.373047,1422.457397 2111.756592,1408.992798 
	C2049.192627,1403.286133 1986.666260,1406.547852 1924.881470,1419.750366 
	C1789.041260,1448.777222 1673.710693,1513.848145 1580.176025,1616.565063 
	C1477.153320,1729.701294 1422.558594,1863.478394 1413.139038,2015.885742 
	C1409.750366,2070.714600 1414.141602,2125.193115 1425.635132,2178.780762 
	C1461.311401,2345.116943 1548.938477,2477.709717 1687.750000,2575.959229 
	C1765.045288,2630.667725 1850.981689,2665.315430 1944.281372,2681.585205 
	C1946.488770,2681.970215 1948.901489,2681.177246 1952.142456,2680.836426 
	C1951.119873,2676.320068 1950.508789,2673.112061 1949.664673,2669.966064 
	C1909.810059,2521.442871 1869.795898,2372.962402 1830.155640,2224.382324 
	C1819.522095,2184.524658 1806.647095,2145.194824 1800.248047,2100.551514 
M776.607239,2769.354248 
	C768.355530,2754.161377 761.281006,2738.167725 751.607483,2723.941650 
	C731.302917,2694.080322 697.594971,2693.587891 670.256836,2716.500000 
	C655.708008,2736.323486 650.144409,2754.385254 661.707336,2777.934082 
	C674.884460,2804.770264 690.180847,2830.559570 704.312134,2856.934814 
	C726.934143,2899.157227 749.482178,2941.420654 771.821655,2983.792969 
	C790.136536,3018.531738 808.102356,3053.454834 826.220520,3088.297119 
	C826.835449,3089.479736 827.397888,3090.689941 828.032471,3091.861572 
	C845.136169,3123.438477 862.290161,3154.988525 879.338806,3186.595459 
	C890.076172,3206.501465 900.562744,3226.543213 911.335205,3246.430176 
	C921.804077,3265.756592 939.902283,3273.061768 959.945312,3271.394775 
	C992.066101,3268.723633 1009.028870,3244.234131 1008.117554,3218.004395 
	C1007.661926,3204.888916 1002.960754,3193.356689 996.917480,3182.205078 
	C982.980713,3156.487549 968.596313,3131.011719 954.774292,3105.233398 
	C931.194641,3061.257324 907.809814,3017.176025 884.529663,2973.040283 
	C867.451355,2940.662109 850.670959,2908.126709 833.760071,2875.660156 
	C833.144470,2874.478271 832.579956,2873.269043 831.948120,2872.095947 
	C813.970337,2838.721436 795.986816,2805.350098 776.607239,2769.354248 
M803.387390,1389.452515 
	C818.350403,1362.039307 833.510071,1334.731201 848.232056,1307.189087 
	C872.369324,1262.032593 896.292786,1216.761230 920.170898,1171.466797 
	C936.922424,1139.690918 953.449890,1107.797119 970.072388,1075.953369 
	C970.996765,1074.182495 971.841431,1072.369751 972.781372,1070.607544 
	C983.107300,1051.248901 994.319031,1032.303711 1003.568970,1012.444519 
	C1016.591736,984.485413 1003.126770,955.571228 976.315918,942.483398 
	C973.423645,941.071533 969.981384,940.310181 966.752136,940.161560 
	C959.439514,939.825073 952.024841,939.420898 944.798218,940.278809 
	C939.688477,940.885437 934.076843,942.491455 929.993347,945.450745 
	C920.856567,952.072144 912.499878,959.722900 907.058594,970.032776 
	C896.817993,989.436340 886.229004,1008.656616 876.040710,1028.087280 
	C857.813904,1062.848633 839.776306,1097.709229 821.662598,1132.530029 
	C821.047852,1133.711670 820.500122,1134.928955 819.862000,1136.097290 
	C804.889893,1163.506592 789.652710,1190.774658 774.996460,1218.351562 
	C756.888855,1252.422363 739.262024,1286.748779 721.431763,1320.966797 
	C720.816406,1322.147949 720.282349,1323.371826 719.653015,1324.545044 
	C700.484680,1360.279175 681.513184,1396.121338 662.002930,1431.667725 
	C656.579224,1441.549561 654.801514,1451.790894 656.195557,1462.469238 
	C659.311157,1486.335693 677.217346,1505.060059 702.167419,1507.879028 
	C726.817017,1510.663940 744.851257,1499.601196 756.418884,1478.575562 
	C772.126587,1450.024902 786.850159,1420.932983 803.387390,1389.452515 
M3349.989014,1312.040649 
	C3342.646484,1298.637085 3335.100830,1285.339966 3328.000732,1271.809204 
	C3309.763672,1237.055054 3291.724121,1202.197266 3273.608643,1167.379272 
	C3272.993896,1166.197876 3272.449707,1164.978638 3271.812012,1163.810303 
	C3256.527832,1135.814331 3240.982910,1107.957275 3226.010010,1079.795898 
	C3208.210449,1046.317871 3190.937256,1012.560120 3173.331787,978.978394 
	C3171.182861,974.879456 3168.086914,971.276611 3165.940430,967.176514 
	C3153.738525,943.869568 3133.835693,936.702942 3109.096436,940.193909 
	C3103.972656,940.916870 3098.152588,942.239868 3094.309326,945.339417 
	C3086.613037,951.546509 3079.759277,958.906433 3073.190674,966.348877 
	C3070.692139,969.179443 3068.857910,973.465942 3068.577148,977.227539 
	C3067.589600,990.446350 3066.984863,1003.401978 3073.758545,1016.072754 
	C3094.771729,1055.380737 3114.969482,1095.124390 3135.480225,1134.700806 
	C3135.786621,1135.291870 3136.016113,1135.923584 3136.334961,1136.506958 
	C3151.939697,1165.087036 3167.802246,1193.529907 3183.094482,1222.276123 
	C3200.588867,1255.161987 3217.576416,1288.317017 3234.783203,1321.355713 
	C3235.090820,1321.946411 3235.374512,1322.549805 3235.689941,1323.136108 
	C3254.279541,1357.668701 3272.876465,1392.197266 3291.459717,1426.733276 
	C3300.908936,1444.293579 3309.641113,1462.286011 3319.952637,1479.323730 
	C3331.641113,1498.636963 3347.550049,1510.551758 3372.409668,1508.283936 
	C3403.431396,1505.453979 3427.024170,1473.809082 3417.743164,1444.037964 
	C3414.208252,1432.699463 3408.956299,1421.760132 3403.395020,1411.214844 
	C3386.343994,1378.882568 3368.763916,1346.829224 3349.989014,1312.040649 
M1156.070068,3659.921875 
	C1154.714478,3664.995850 1152.808105,3669.994873 1152.103882,3675.157715 
	C1149.760010,3692.341553 1154.649902,3707.724365 1163.264404,3722.644287 
	C1177.867065,3747.935791 1191.780518,3773.635742 1205.542236,3799.399902 
	C1221.511108,3829.296387 1237.282227,3859.306396 1252.578369,3889.550537 
	C1259.614014,3903.461670 1269.504028,3912.697754 1284.748291,3917.062012 
	C1292.635864,3919.320068 1300.326294,3919.983398 1308.297241,3919.982910 
	C1373.535522,3919.978271 1438.773804,3919.980957 1504.012085,3919.978271 
	C1507.340454,3919.978271 1510.683838,3920.151367 1513.994995,3919.904297 
	C1538.562012,3918.072754 1558.571655,3895.497070 1560.328003,3871.121338 
	C1562.782471,3837.055908 1539.056519,3814.508789 1505.805786,3815.520264 
	C1452.599365,3817.138672 1399.306274,3815.772949 1346.052612,3816.101318 
	C1336.141602,3816.162354 1330.213623,3812.771973 1325.716064,3803.782959 
	C1314.124268,3780.614990 1301.625122,3757.901123 1289.525879,3734.986328 
	C1276.495361,3710.307373 1262.079712,3686.233887 1250.878296,3660.748779 
	C1238.113770,3631.707764 1186.892944,3618.772461 1165.582520,3648.273926 
	C1163.260376,3651.488770 1160.281616,3654.229004 1156.070068,3659.921875 
M1990.000000,3919.980469 
	C2063.906982,3919.980225 2137.813965,3920.080322 2211.720703,3919.925293 
	C2237.460693,3919.871094 2255.815918,3906.294678 2263.995605,3881.826904 
	C2265.660400,3876.847168 2268.101318,3871.362305 2267.428467,3866.490967 
	C2263.274170,3836.417236 2245.500977,3815.743652 2214.230713,3815.829834 
	C2096.379883,3816.154541 1978.527466,3816.096680 1860.676880,3815.745117 
	C1849.301025,3815.711182 1839.744995,3819.340820 1830.667969,3824.881836 
	C1813.885498,3835.127441 1804.961060,3860.047852 1809.535400,3879.037354 
	C1814.841675,3901.065430 1839.873779,3920.507812 1862.158936,3920.160889 
	C1903.430176,3919.518066 1944.718628,3919.979004 1990.000000,3919.980469 
M3748.632324,2061.477539 
	C3738.614014,2042.697632 3728.545654,2023.943848 3718.588867,2005.131226 
	C3704.580322,1978.662964 3690.731689,1952.109741 3676.653320,1925.678833 
	C3671.343994,1915.710449 3666.124756,1905.619385 3659.848633,1896.266113 
	C3655.467041,1889.736572 3650.181641,1883.187378 3643.830322,1878.750977 
	C3634.003174,1871.886719 3622.533691,1866.502563 3610.203369,1868.494507 
	C3568.043701,1875.304932 3548.712402,1916.346436 3570.834961,1952.460205 
	C3573.263672,1956.424683 3575.948975,1960.255493 3578.089355,1964.369751 
	C3597.751221,2002.164429 3617.245850,2040.046265 3636.969482,2077.808594 
	C3641.545654,2086.569824 3646.809814,2094.971924 3651.982666,2103.928467 
	C3643.340088,2121.117432 3635.145752,2137.824707 3626.578857,2154.338379 
	C3617.697754,2171.457520 3608.337402,2188.328613 3599.473389,2205.456543 
	C3597.766846,2208.753906 3597.386719,2212.737549 3596.113281,2217.443604 
	C3610.481445,2221.420654 3623.797852,2225.044189 3637.077148,2228.798096 
	C3653.666016,2233.487061 3670.218506,2238.303467 3686.799561,2243.020020 
	C3691.012939,2244.218506 3694.885254,2243.188232 3697.727783,2239.979980 
	C3700.343018,2237.028320 3702.786621,2233.789551 3704.641846,2230.322021 
	C3717.826172,2205.678955 3730.815430,2180.931641 3743.923096,2156.247803 
	C3747.977295,2148.613281 3752.326660,2141.134766 3756.330078,2133.474609 
	C3765.443115,2116.036133 3768.018066,2098.341797 3758.144531,2080.197266 
	C3755.280029,2074.932617 3752.733643,2069.494629 3748.632324,2061.477539 
z"/>
<path fill="#0087EC" opacity="1.000000" stroke="none" 
	d="
M4035.634766,4730.585938 
	C4030.026123,4724.711914 4025.449219,4719.058105 4020.335205,4713.941895 
	C3805.913574,4499.440918 3591.488525,4284.943848 3376.960938,4070.548828 
	C3281.724854,3975.371582 3186.274414,3880.408936 3090.900635,3785.369385 
	C3086.227539,3780.712402 3081.358887,3776.251953 3075.564453,3770.730957 
	C3070.769287,3774.931152 3066.214600,3778.487549 3062.155518,3782.540771 
	C2995.175781,3849.422363 2928.258545,3916.366699 2861.327393,3983.297119 
	C2796.281982,4048.342529 2731.263672,4113.415039 2666.159668,4178.401855 
	C2657.204346,4187.341309 2647.872559,4195.907227 2638.592041,4204.513184 
	C2637.228027,4205.777832 2635.174316,4206.298340 2632.959717,4207.403320 
	C2631.552734,4204.038086 2629.909912,4201.095215 2629.061035,4197.938965 
	C2439.064697,3491.447021 2249.124023,2784.940186 2059.285156,2078.819092 
	C2065.134277,2073.663574 2070.152832,2076.877197 2075.028320,2078.180908 
	C2152.207520,2098.819580 2229.373535,2119.508057 2306.533447,2140.218994 
	C2503.919189,2193.200439 2701.295410,2246.217773 2898.684814,2299.185303 
	C3186.740723,2376.481201 3474.799561,2453.764893 3762.867188,2531.016357 
	C3903.045654,2568.608154 4043.248291,2606.110352 4183.431641,2643.683838 
	C4187.173340,2644.686523 4190.819336,2646.045898 4196.361328,2647.837402 
	C4192.662109,2652.451416 4190.274414,2656.088379 4187.257812,2659.093262 
	C4147.116211,2699.070557 4106.781250,2738.854492 4066.698730,2778.891113 
	C3966.717285,2878.758301 3866.833740,2978.723633 3766.952881,3078.691650 
	C3763.712402,3081.935059 3760.926758,3085.632568 3757.087402,3090.097168 
	C3762.967285,3096.175049 3768.361084,3101.922852 3773.936523,3107.489014 
	C3939.041748,3272.315918 4104.202148,3437.087158 4269.270996,3601.950684 
	C4381.048828,3713.589600 4492.651855,3825.403320 4604.438477,3937.033447 
	C4638.389648,3970.936523 4672.667480,4004.512939 4706.877930,4038.155029 
	C4709.648926,4040.880127 4713.058105,4042.956055 4717.152344,4046.399414 
	C4718.402832,4049.231689 4718.671387,4050.998535 4717.523438,4054.499512 
	C4712.547852,4059.122803 4708.697754,4061.720215 4705.470703,4064.941895 
	C4488.399902,4281.638672 4271.370605,4498.376465 4054.416748,4715.189941 
	C4049.798584,4719.805176 4046.094971,4725.335938 4041.964355,4730.438477 
	C4040.114990,4730.645020 4038.265381,4730.851074 4035.634766,4730.585938 
z"/>
<path fill="#030405" opacity="1.000000" stroke="none" 
	d="
M4044.023438,4730.624023 
	C4046.094971,4725.335938 4049.798584,4719.805176 4054.416748,4715.189941 
	C4271.370605,4498.376465 4488.399902,4281.638672 4705.470703,4064.941895 
	C4708.697754,4061.720215 4712.547852,4059.122803 4717.138672,4055.373535 
	C4718.394043,4060.493164 4718.810059,4066.473633 4718.812500,4072.453857 
	C4718.852051,4175.700195 4718.840820,4278.946289 4718.840820,4382.192871 
	C4718.840820,4388.111816 4718.840820,4394.030762 4718.840820,4399.791016 
	C4711.112305,4404.684570 4703.603027,4402.748047 4696.562988,4402.759766 
	C4607.305176,4402.912598 4518.046875,4402.848633 4428.789062,4402.884766 
	C4422.305176,4402.887207 4415.821289,4403.236816 4408.035156,4403.462891 
	C4407.408203,4419.805176 4407.784668,4434.989258 4407.719727,4450.152344 
	C4407.653809,4465.472656 4407.705078,4480.793457 4407.705078,4496.113770 
	C4407.705078,4511.434082 4407.705078,4526.754883 4407.705078,4542.075195 
	C4407.705078,4558.061523 4407.705078,4574.048340 4407.705078,4590.034668 
	C4407.705078,4605.354980 4407.705078,4620.675781 4407.705078,4635.996094 
	C4407.705078,4651.316406 4407.705078,4666.636719 4407.705078,4681.957031 
	C4407.705078,4697.249023 4407.705078,4712.541016 4407.705078,4727.420898 
	C4400.439453,4733.186523 4392.806641,4730.716309 4385.795410,4730.729980 
	C4289.210449,4730.922852 4192.625488,4730.862793 4096.040039,4730.858398 
	C4079.387451,4730.857422 4062.735107,4730.826660 4044.023438,4730.624023 
z"/>
<path fill="#04121E" opacity="1.000000" stroke="none" 
	d="
M312.030945,2081.836426 
	C314.295105,2079.353516 316.595764,2079.144531 317.886475,2077.893799 
	C319.739929,2076.097168 321.031769,2073.633545 322.262695,2071.296143 
	C336.837280,2043.621094 351.358948,2015.918091 365.888428,1988.219360 
	C380.727417,1959.930420 395.461273,1931.585571 410.436615,1903.369141 
	C417.829926,1889.438354 428.875031,1879.171265 443.139252,1872.327515 
	C456.015961,1866.149780 468.574554,1866.418579 481.526367,1872.553345 
	C490.216125,1876.669312 497.239014,1882.533813 503.406433,1889.602783 
	C508.797668,1895.782349 511.791382,1902.878906 512.128967,1911.349976 
	C512.721680,1926.218628 510.950806,1940.066284 503.558197,1953.633179 
	C484.769684,1988.114014 467.467194,2023.404053 448.701965,2057.897949 
	C440.132294,2073.650879 430.741028,2088.916992 423.747345,2106.183838 
	C437.067688,2130.636963 450.397461,2155.105713 463.721344,2179.577637 
	C464.039642,2180.162109 464.267578,2180.795166 464.577881,2181.384521 
	C477.915405,2206.700195 490.608154,2232.386230 504.847260,2257.184570 
	C513.129028,2271.608154 513.252197,2286.618164 511.487854,2301.723633 
	C509.106781,2322.109375 489.523376,2338.918213 468.852966,2339.947021 
	C457.531464,2340.510742 446.466400,2340.366943 435.938202,2334.264160 
	C426.365387,2328.715088 418.970459,2321.874756 413.892059,2311.993896 
	C399.899139,2284.768799 385.735474,2257.627441 371.275787,2230.647461 
	C354.626007,2199.581543 337.628021,2168.701172 320.627472,2137.824951 
	C319.448395,2135.683594 316.992676,2134.245117 313.786438,2132.226074 
	C312.166901,2115.863525 311.891602,2099.754150 312.030945,2081.836426 
z"/>
<path fill="#001322" opacity="1.000000" stroke="none" 
	d="
M2794.094727,291.297455 
	C2809.857178,302.387817 2820.837646,315.027649 2828.142090,331.411865 
	C2835.428467,347.755585 2844.893311,363.130096 2853.440430,378.909088 
	C2870.219727,409.884094 2887.090820,440.809570 2903.780029,471.832886 
	C2908.826172,481.213135 2913.397461,490.848999 2918.186768,500.367371 
	C2927.236084,518.351501 2926.518555,535.910767 2917.219238,553.805298 
	C2911.180176,565.426086 2900.850830,570.908020 2889.916992,575.664307 
	C2870.538330,584.094116 2853.256348,576.628723 2837.636475,565.985840 
	C2831.487793,561.796265 2827.506836,553.806763 2823.705322,546.905212 
	C2811.515137,524.773071 2799.846924,502.352783 2788.020508,480.020813 
	C2775.259521,455.924103 2762.314697,431.920013 2749.944580,407.623749 
	C2745.840332,399.562531 2740.700684,395.540436 2731.297363,395.836548 
	C2713.991455,396.381439 2696.655762,395.985046 2679.332520,395.983521 
	C2643.353271,395.980377 2607.373047,396.135712 2571.395264,395.909027 
	C2554.085449,395.799957 2539.150391,389.978271 2526.876465,377.046265 
	C2507.322510,356.444000 2509.756104,317.437042 2533.460938,301.400482 
	C2536.726074,299.191711 2539.763672,296.646576 2543.506836,293.022919 
	C2548.697510,291.450409 2553.287109,290.820496 2557.877441,290.817474 
	C2636.013428,290.765778 2714.149658,290.791840 2794.094727,291.297455 
z"/>
<path fill="#001322" opacity="1.000000" stroke="none" 
	d="
M2234.088379,291.289917 
	C2239.426270,294.723694 2242.805908,297.866241 2246.510742,300.561951 
	C2260.600830,310.814362 2265.556885,326.177277 2267.204834,342.025879 
	C2268.364990,353.185883 2263.353027,364.115204 2256.367432,373.331665 
	C2245.680420,387.432098 2230.862793,394.033173 2213.651855,395.886841 
	C2211.021240,396.170135 2208.337891,395.977875 2205.678955,395.977661 
	C2092.669189,395.967712 1979.658813,395.783203 1866.649902,396.117157 
	C1848.620239,396.170471 1834.241943,389.658661 1822.774414,376.640808 
	C1803.557617,354.825928 1803.656616,328.621643 1823.412598,306.794128 
	C1827.804932,301.941315 1833.497925,298.265869 1839.341797,292.928955 
	C1845.356201,291.468079 1850.621094,290.830872 1855.886108,290.828644 
	C1981.350708,290.775604 2106.815186,290.790710 2234.088379,291.289917 
z"/>
<path fill="#001322" opacity="1.000000" stroke="none" 
	d="
M1506.209229,291.418213 
	C1507.827637,324.477203 1507.641724,357.042816 1507.348877,389.607452 
	C1507.338379,390.768921 1506.268433,391.920807 1505.459839,393.543335 
	C1499.834351,397.599396 1492.966431,395.838989 1486.523560,395.861176 
	C1441.970093,396.014618 1397.415771,395.945618 1352.861816,395.941101 
	C1331.649170,395.938934 1332.950439,394.801575 1322.603516,414.502563 
	C1307.492554,443.273865 1291.462891,471.561127 1276.071289,500.187225 
	C1269.148560,513.062195 1263.023193,526.364624 1256.156128,539.270996 
	C1251.290039,548.416626 1247.690552,549.774353 1238.528076,545.071411 
	C1214.319458,532.645447 1190.287964,519.868774 1166.337158,506.951111 
	C1159.981323,503.523163 1158.861572,498.939026 1162.307129,491.703857 
	C1168.306641,479.105408 1174.562378,466.619476 1181.064087,454.272461 
	C1186.622681,443.716248 1192.902100,433.539886 1198.469238,422.988007 
	C1214.579346,392.453766 1230.353882,361.742065 1246.539551,331.248322 
	C1254.373535,316.488770 1263.739868,302.844696 1279.346069,292.924866 
	C1283.357056,291.456970 1286.621704,290.798798 1289.886230,290.798706 
	C1361.386597,290.796661 1432.886963,290.867645 1506.209229,291.418213 
z"/>
<path fill="#04121E" opacity="1.000000" stroke="none" 
	d="
M314.698181,291.709778 
	C315.700470,293.142334 315.083740,294.195831 313.253418,295.466492 
	C312.784363,294.465759 313.130829,293.014771 314.698181,291.709778 
z"/>
<path fill="#04121E" opacity="1.000000" stroke="none" 
	d="
M312.200378,4113.279297 
	C313.659851,4112.509766 314.611938,4113.281738 315.608673,4115.266113 
	C314.603149,4115.592773 313.283020,4115.041016 312.200378,4113.279297 
z"/>
<path fill="#0086EB" opacity="1.000000" stroke="none" 
	d="
M1800.374023,2102.386230 
	C1806.647095,2145.194824 1819.522095,2184.524658 1830.155640,2224.382324 
	C1869.795898,2372.962402 1909.810059,2521.442871 1949.664673,2669.966064 
	C1950.508789,2673.112061 1951.119873,2676.320068 1952.142456,2680.836426 
	C1948.901489,2681.177246 1946.488770,2681.970215 1944.281372,2681.585205 
	C1850.981689,2665.315430 1765.045288,2630.667725 1687.750000,2575.959229 
	C1548.938477,2477.709717 1461.311401,2345.116943 1425.635132,2178.780762 
	C1414.141602,2125.193115 1409.750366,2070.714600 1413.139038,2015.885742 
	C1422.558594,1863.478394 1477.153320,1729.701294 1580.176025,1616.565063 
	C1673.710693,1513.848145 1789.041260,1448.777222 1924.881470,1419.750366 
	C1986.666260,1406.547852 2049.192627,1403.286133 2111.756592,1408.992798 
	C2259.373047,1422.457397 2388.021973,1479.640259 2496.493164,1581.163574 
	C2574.386963,1654.068115 2630.280518,1741.257568 2665.042480,1842.039429 
	C2679.621826,1884.308350 2689.567627,1927.636108 2694.380127,1971.606689 
	C2691.392578,1975.909180 2688.184082,1974.042603 2685.096924,1973.222290 
	C2631.689941,1959.030029 2578.256348,1944.936157 2524.880859,1930.626587 
	C2393.708252,1895.460083 2262.615967,1859.993408 2131.386719,1825.040771 
	C2046.016479,1802.302734 1967.012817,1816.398926 1897.610596,1871.501221 
	C1829.547485,1925.540161 1797.203613,1997.428711 1799.564209,2084.576416 
	C1799.708496,2089.903564 1800.016357,2095.226562 1800.374023,2102.386230 
z"/>
<path fill="#001322" opacity="1.000000" stroke="none" 
	d="
M777.305786,2770.666016 
	C795.986816,2805.350098 813.970337,2838.721436 831.948120,2872.095947 
	C832.579956,2873.269043 833.144470,2874.478271 833.760071,2875.660156 
	C850.670959,2908.126709 867.451355,2940.662109 884.529663,2973.040283 
	C907.809814,3017.176025 931.194641,3061.257324 954.774292,3105.233398 
	C968.596313,3131.011719 982.980713,3156.487549 996.917480,3182.205078 
	C1002.960754,3193.356689 1007.661926,3204.888916 1008.117554,3218.004395 
	C1009.028870,3244.234131 992.066101,3268.723633 959.945312,3271.394775 
	C939.902283,3273.061768 921.804077,3265.756592 911.335205,3246.430176 
	C900.562744,3226.543213 890.076172,3206.501465 879.338806,3186.595459 
	C862.290161,3154.988525 845.136169,3123.438477 828.032471,3091.861572 
	C827.397888,3090.689941 826.835449,3089.479736 826.220520,3088.297119 
	C808.102356,3053.454834 790.136536,3018.531738 771.821655,2983.792969 
	C749.482178,2941.420654 726.934143,2899.157227 704.312134,2856.934814 
	C690.180847,2830.559570 674.884460,2804.770264 661.707336,2777.934082 
	C650.144409,2754.385254 655.708008,2736.323486 670.256836,2716.500000 
	C697.594971,2693.587891 731.302917,2694.080322 751.607483,2723.941650 
	C761.281006,2738.167725 768.355530,2754.161377 777.305786,2770.666016 
z"/>
<path fill="#001322" opacity="1.000000" stroke="none" 
	d="
M802.691528,1390.762817 
	C786.850159,1420.932983 772.126587,1450.024902 756.418884,1478.575562 
	C744.851257,1499.601196 726.817017,1510.663940 702.167419,1507.879028 
	C677.217346,1505.060059 659.311157,1486.335693 656.195557,1462.469238 
	C654.801514,1451.790894 656.579224,1441.549561 662.002930,1431.667725 
	C681.513184,1396.121338 700.484680,1360.279175 719.653015,1324.545044 
	C720.282349,1323.371826 720.816406,1322.147949 721.431763,1320.966797 
	C739.262024,1286.748779 756.888855,1252.422363 774.996460,1218.351562 
	C789.652710,1190.774658 804.889893,1163.506592 819.862000,1136.097290 
	C820.500122,1134.928955 821.047852,1133.711670 821.662598,1132.530029 
	C839.776306,1097.709229 857.813904,1062.848633 876.040710,1028.087280 
	C886.229004,1008.656616 896.817993,989.436340 907.058594,970.032776 
	C912.499878,959.722900 920.856567,952.072144 929.993347,945.450745 
	C934.076843,942.491455 939.688477,940.885437 944.798218,940.278809 
	C952.024841,939.420898 959.439514,939.825073 966.752136,940.161560 
	C969.981384,940.310181 973.423645,941.071533 976.315918,942.483398 
	C1003.126770,955.571228 1016.591736,984.485413 1003.568970,1012.444519 
	C994.319031,1032.303711 983.107300,1051.248901 972.781372,1070.607544 
	C971.841431,1072.369751 970.996765,1074.182495 970.072388,1075.953369 
	C953.449890,1107.797119 936.922424,1139.690918 920.170898,1171.466797 
	C896.292786,1216.761230 872.369324,1262.032593 848.232056,1307.189087 
	C833.510071,1334.731201 818.350403,1362.039307 802.691528,1390.762817 
z"/>
<path fill="#001322" opacity="1.000000" stroke="none" 
	d="
M3350.689209,1313.354126 
	C3368.763916,1346.829224 3386.343994,1378.882568 3403.395020,1411.214844 
	C3408.956299,1421.760132 3414.208252,1432.699463 3417.743164,1444.037964 
	C3427.024170,1473.809082 3403.431396,1505.453979 3372.409668,1508.283936 
	C3347.550049,1510.551758 3331.641113,1498.636963 3319.952637,1479.323730 
	C3309.641113,1462.286011 3300.908936,1444.293579 3291.459717,1426.733276 
	C3272.876465,1392.197266 3254.279541,1357.668701 3235.689941,1323.136108 
	C3235.374512,1322.549805 3235.090820,1321.946411 3234.783203,1321.355713 
	C3217.576416,1288.317017 3200.588867,1255.161987 3183.094482,1222.276123 
	C3167.802246,1193.529907 3151.939697,1165.087036 3136.334961,1136.506958 
	C3136.016113,1135.923584 3135.786621,1135.291870 3135.480225,1134.700806 
	C3114.969482,1095.124390 3094.771729,1055.380737 3073.758545,1016.072754 
	C3066.984863,1003.401978 3067.589600,990.446350 3068.577148,977.227539 
	C3068.857910,973.465942 3070.692139,969.179443 3073.190674,966.348877 
	C3079.759277,958.906433 3086.613037,951.546509 3094.309326,945.339417 
	C3098.152588,942.239868 3103.972656,940.916870 3109.096436,940.193909 
	C3133.835693,936.702942 3153.738525,943.869568 3165.940430,967.176514 
	C3168.086914,971.276611 3171.182861,974.879456 3173.331787,978.978394 
	C3190.937256,1012.560120 3208.210449,1046.317871 3226.010010,1079.795898 
	C3240.982910,1107.957275 3256.527832,1135.814331 3271.812012,1163.810303 
	C3272.449707,1164.978638 3272.993896,1166.197876 3273.608643,1167.379272 
	C3291.724121,1202.197266 3309.763672,1237.055054 3328.000732,1271.809204 
	C3335.100830,1285.339966 3342.646484,1298.637085 3350.689209,1313.354126 
z"/>
<path fill="#001322" opacity="1.000000" stroke="none" 
	d="
M1156.838745,3658.555664 
	C1160.281616,3654.229004 1163.260376,3651.488770 1165.582520,3648.273926 
	C1186.892944,3618.772461 1238.113770,3631.707764 1250.878296,3660.748779 
	C1262.079712,3686.233887 1276.495361,3710.307373 1289.525879,3734.986328 
	C1301.625122,3757.901123 1314.124268,3780.614990 1325.716064,3803.782959 
	C1330.213623,3812.771973 1336.141602,3816.162354 1346.052612,3816.101318 
	C1399.306274,3815.772949 1452.599365,3817.138672 1505.805786,3815.520264 
	C1539.056519,3814.508789 1562.782471,3837.055908 1560.328003,3871.121338 
	C1558.571655,3895.497070 1538.562012,3918.072754 1513.994995,3919.904297 
	C1510.683838,3920.151367 1507.340454,3919.978271 1504.012085,3919.978271 
	C1438.773804,3919.980957 1373.535522,3919.978271 1308.297241,3919.982910 
	C1300.326294,3919.983398 1292.635864,3919.320068 1284.748291,3917.062012 
	C1269.504028,3912.697754 1259.614014,3903.461670 1252.578369,3889.550537 
	C1237.282227,3859.306396 1221.511108,3829.296387 1205.542236,3799.399902 
	C1191.780518,3773.635742 1177.867065,3747.935791 1163.264404,3722.644287 
	C1154.649902,3707.724365 1149.760010,3692.341553 1152.103882,3675.157715 
	C1152.808105,3669.994873 1154.714478,3664.995850 1156.838745,3658.555664 
z"/>
<path fill="#001322" opacity="1.000000" stroke="none" 
	d="
M1988.000000,3919.980469 
	C1944.718628,3919.979004 1903.430176,3919.518066 1862.158936,3920.160889 
	C1839.873779,3920.507812 1814.841675,3901.065430 1809.535400,3879.037354 
	C1804.961060,3860.047852 1813.885498,3835.127441 1830.667969,3824.881836 
	C1839.744995,3819.340820 1849.301025,3815.711182 1860.676880,3815.745117 
	C1978.527466,3816.096680 2096.379883,3816.154541 2214.230713,3815.829834 
	C2245.500977,3815.743652 2263.274170,3836.417236 2267.428467,3866.490967 
	C2268.101318,3871.362305 2265.660400,3876.847168 2263.995605,3881.826904 
	C2255.815918,3906.294678 2237.460693,3919.871094 2211.720703,3919.925293 
	C2137.813965,3920.080322 2063.906982,3919.980225 1988.000000,3919.980469 
z"/>
<path fill="#001322" opacity="1.000000" stroke="none" 
	d="
M3749.336914,2062.806641 
	C3752.733643,2069.494629 3755.280029,2074.932617 3758.144531,2080.197266 
	C3768.018066,2098.341797 3765.443115,2116.036133 3756.330078,2133.474609 
	C3752.326660,2141.134766 3747.977295,2148.613281 3743.923096,2156.247803 
	C3730.815430,2180.931641 3717.826172,2205.678955 3704.641846,2230.322021 
	C3702.786621,2233.789551 3700.343018,2237.028320 3697.727783,2239.979980 
	C3694.885254,2243.188232 3691.012939,2244.218506 3686.799561,2243.020020 
	C3670.218506,2238.303467 3653.666016,2233.487061 3637.077148,2228.798096 
	C3623.797852,2225.044189 3610.481445,2221.420654 3596.113281,2217.443604 
	C3597.386719,2212.737549 3597.766846,2208.753906 3599.473389,2205.456543 
	C3608.337402,2188.328613 3617.697754,2171.457520 3626.578857,2154.338379 
	C3635.145752,2137.824707 3643.340088,2121.117432 3651.982666,2103.928467 
	C3646.809814,2094.971924 3641.545654,2086.569824 3636.969482,2077.808594 
	C3617.245850,2040.046265 3597.751221,2002.164429 3578.089355,1964.369751 
	C3575.948975,1960.255493 3573.263672,1956.424683 3570.834961,1952.460205 
	C3548.712402,1916.346436 3568.043701,1875.304932 3610.203369,1868.494507 
	C3622.533691,1866.502563 3634.003174,1871.886719 3643.830322,1878.750977 
	C3650.181641,1883.187378 3655.467041,1889.736572 3659.848633,1896.266113 
	C3666.124756,1905.619385 3671.343994,1915.710449 3676.653320,1925.678833 
	C3690.731689,1952.109741 3704.580322,1978.662964 3718.588867,2005.131226 
	C3728.545654,2023.943848 3738.614014,2042.697632 3749.336914,2062.806641 
z"/>
</svg>